<svg xmlns="http://www.w3.org/2000/svg" viewBox="0 0 100 100" preserveAspectRatio="xMidYMid" width="200" height="200" style="shape-rendering: auto; display: block; background: rgba(255, 255, 255, 0);" xmlns:xlink="http://www.w3.org/1999/xlink"><g><g transform="rotate(0 50 50)">
  <rect fill="#3a3a3a" height="13" width="4" ry="0" rx="0" y="23.5" x="48">
    <animate repeatCount="indefinite" begin="-0.8566978193146417s" dur="0.9345794392523364s" keyTimes="0;1" values="1;0" attributeName="opacity"></animate>
  </rect>
</g><g transform="rotate(30 50 50)">
  <rect fill="#3a3a3a" height="13" width="4" ry="0" rx="0" y="23.5" x="48">
    <animate repeatCount="indefinite" begin="-0.778816199376947s" dur="0.9345794392523364s" keyTimes="0;1" values="1;0" attributeName="opacity"></animate>
  </rect>
</g><g transform="rotate(60 50 50)">
  <rect fill="#3a3a3a" height="13" width="4" ry="0" rx="0" y="23.5" x="48">
    <animate repeatCount="indefinite" begin="-0.7009345794392523s" dur="0.9345794392523364s" keyTimes="0;1" values="1;0" attributeName="opacity"></animate>
  </rect>
</g><g transform="rotate(90 50 50)">
  <rect fill="#3a3a3a" height="13" width="4" ry="0" rx="0" y="23.5" x="48">
    <animate repeatCount="indefinite" begin="-0.6230529595015576s" dur="0.9345794392523364s" keyTimes="0;1" values="1;0" attributeName="opacity"></animate>
  </rect>
</g><g transform="rotate(120 50 50)">
  <rect fill="#3a3a3a" height="13" width="4" ry="0" rx="0" y="23.5" x="48">
    <animate repeatCount="indefinite" begin="-0.545171339563863s" dur="0.9345794392523364s" keyTimes="0;1" values="1;0" attributeName="opacity"></animate>
  </rect>
</g><g transform="rotate(150 50 50)">
  <rect fill="#3a3a3a" height="13" width="4" ry="0" rx="0" y="23.5" x="48">
    <animate repeatCount="indefinite" begin="-0.4672897196261682s" dur="0.9345794392523364s" keyTimes="0;1" values="1;0" attributeName="opacity"></animate>
  </rect>
</g><g transform="rotate(180 50 50)">
  <rect fill="#3a3a3a" height="13" width="4" ry="0" rx="0" y="23.5" x="48">
    <animate repeatCount="indefinite" begin="-0.3894080996884735s" dur="0.9345794392523364s" keyTimes="0;1" values="1;0" attributeName="opacity"></animate>
  </rect>
</g><g transform="rotate(210 50 50)">
  <rect fill="#3a3a3a" height="13" width="4" ry="0" rx="0" y="23.5" x="48">
    <animate repeatCount="indefinite" begin="-0.3115264797507788s" dur="0.9345794392523364s" keyTimes="0;1" values="1;0" attributeName="opacity"></animate>
  </rect>
</g><g transform="rotate(240 50 50)">
  <rect fill="#3a3a3a" height="13" width="4" ry="0" rx="0" y="23.5" x="48">
    <animate repeatCount="indefinite" begin="-0.2336448598130841s" dur="0.9345794392523364s" keyTimes="0;1" values="1;0" attributeName="opacity"></animate>
  </rect>
</g><g transform="rotate(270 50 50)">
  <rect fill="#3a3a3a" height="13" width="4" ry="0" rx="0" y="23.5" x="48">
    <animate repeatCount="indefinite" begin="-0.1557632398753894s" dur="0.9345794392523364s" keyTimes="0;1" values="1;0" attributeName="opacity"></animate>
  </rect>
</g><g transform="rotate(300 50 50)">
  <rect fill="#3a3a3a" height="13" width="4" ry="0" rx="0" y="23.5" x="48">
    <animate repeatCount="indefinite" begin="-0.0778816199376947s" dur="0.9345794392523364s" keyTimes="0;1" values="1;0" attributeName="opacity"></animate>
  </rect>
</g><g transform="rotate(330 50 50)">
  <rect fill="#3a3a3a" height="13" width="4" ry="0" rx="0" y="23.5" x="48">
    <animate repeatCount="indefinite" begin="0s" dur="0.9345794392523364s" keyTimes="0;1" values="1;0" attributeName="opacity"></animate>
  </rect>
</g><g></g></g><!-- [ldio] generated by https://loading.io --></svg>